<svg xmlns="http://www.w3.org/2000/svg" viewBox="0 0 100 100" fill="none" aria-hidden="true">
  <circle cx="50" cy="50" r="44" stroke="#9A6B45" stroke-width="2.2"/>
  <path d="M38 68 C40 52 44 42 50 38 C56 42 60 52 62 68" stroke="#5C3D2E" stroke-width="2" stroke-linecap="round"/>
  <path d="M50 68 L50 40" stroke="#5C3D2E" stroke-width="1.6" stroke-linecap="round"/>
  <path d="M50 56 C46 50 42 46 38 44" stroke="#5C3D2E" stroke-width="1.5" stroke-linecap="round" fill="none"/>
  <path d="M50 56 C54 50 58 46 62 44" stroke="#5C3D2E" stroke-width="1.5" stroke-linecap="round" fill="none"/>
  <path d="M50 48 C47 42 45 36 44 30" stroke="#5C3D2E" stroke-width="1.4" stroke-linecap="round" fill="none"/>
  <path d="M50 48 C53 42 55 36 56 30" stroke="#5C3D2E" stroke-width="1.4" stroke-linecap="round" fill="none"/>
  <ellipse cx="44" cy="30" rx="4.2" ry="7" fill="#6D9B4A" transform="rotate(-18 44 30)"/>
  <ellipse cx="56" cy="30" rx="4.2" ry="7" fill="#6D9B4A" transform="rotate(18 56 30)"/>
  <ellipse cx="38" cy="42" rx="3.8" ry="6.5" fill="#6D9B4A" transform="rotate(-32 38 42)"/>
  <ellipse cx="62" cy="42" rx="3.8" ry="6.5" fill="#6D9B4A" transform="rotate(32 62 42)"/>
  <ellipse cx="36" cy="52" rx="3.4" ry="6" fill="#6D9B4A" transform="rotate(-42 36 52)"/>
  <ellipse cx="64" cy="52" rx="3.4" ry="6" fill="#6D9B4A" transform="rotate(42 64 52)"/>
  <ellipse cx="50" cy="26" rx="4" ry="7.2" fill="#6D9B4A"/>
  <ellipse cx="43" cy="36" rx="3.2" ry="5.8" fill="#7CAD56" transform="rotate(-12 43 36)"/>
  <ellipse cx="57" cy="36" rx="3.2" ry="5.8" fill="#7CAD56" transform="rotate(12 57 36)"/>
  <ellipse cx="40" cy="48" rx="3" ry="5.4" fill="#7CAD56" transform="rotate(-24 40 48)"/>
  <ellipse cx="60" cy="48" rx="3" ry="5.4" fill="#7CAD56" transform="rotate(24 60 48)"/>
  <path d="M47 66 L50 62 L53 66" stroke="#5C3D2E" stroke-width="1.4" stroke-linecap="round" stroke-linejoin="round" fill="none"/>
</svg>
